<svg width="79" height="17" viewBox="0 0 79 17" fill="none" xmlns="http://www.w3.org/2000/svg">
<g clip-path="url(#clip0_821_2007)">
<path d="M8.43499 -0.000671387C3.78094 -0.000671387 0 3.78027 0 8.43432C0 13.0884 3.78094 16.8693 8.43499 16.8693C13.089 16.8693 16.87 13.0884 16.87 8.43432C16.87 3.78027 13.0894 -0.000671387 8.43499 -0.000671387ZM8.43499 16.024C4.24546 16.024 0.8453 12.6147 0.8453 8.43432C0.8453 4.25395 4.24546 0.844629 8.43499 0.844629C12.6245 0.844629 16.0247 4.25395 16.0247 8.43432C16.0247 12.6147 12.6245 16.024 8.43499 16.024Z" fill="#0F0E0D"/>
<path d="M11.4446 3.02686C11.4168 3.00822 11.3795 2.99906 11.3425 2.99906C11.231 2.99906 11.1476 3.0828 11.1476 3.19403V5.83231C11.1476 5.92522 11.0733 5.99948 10.9804 5.99948H5.87099C5.77809 5.99948 5.71299 5.92522 5.70383 5.83231V3.19403C5.70383 3.15674 5.69467 3.12893 5.67602 3.09196C5.62041 2.99906 5.49938 2.97125 5.40647 3.02686C3.52059 4.18816 2.37793 6.20393 2.37793 8.43362C2.37793 10.6633 3.52059 12.6791 5.42512 13.8404C5.45293 13.859 5.49021 13.8682 5.52719 13.8682C5.63873 13.8682 5.72216 13.7845 5.72216 13.6732V11.0349C5.72216 10.942 5.79642 10.8769 5.88932 10.8678H10.9987C11.0916 10.8678 11.1659 10.942 11.1659 11.0349V13.6732C11.1659 13.7105 11.1751 13.7383 11.1937 13.7753C11.2493 13.8682 11.3703 13.896 11.4632 13.8404C13.3678 12.6791 14.5104 10.6633 14.5104 8.43362C14.5104 6.20393 13.3491 4.18816 11.4449 3.02686H11.4446ZM4.7375 11.7406L4.76531 12.0566L4.56086 11.8057C2.99097 9.82687 2.99097 7.03058 4.56086 5.05211L4.7375 4.82901L4.76531 4.8012L4.7375 5.12637C4.70969 5.38644 4.70021 5.65598 4.70021 5.92522V10.9322C4.70021 11.2018 4.71886 11.471 4.7375 11.7406ZM11.1476 9.69668C11.1476 9.78958 11.0733 9.86384 10.9804 9.86384H5.87099C5.77809 9.86384 5.71299 9.78958 5.70383 9.69668V7.16994C5.70383 7.07704 5.77809 7.00278 5.87099 7.00278H10.9804C11.0733 7.00278 11.1476 7.07704 11.1476 7.16994V9.69668ZM12.2994 11.8057L12.0949 12.0566L12.1227 11.7406C12.1505 11.4805 12.16 11.2109 12.16 10.9417V5.92522C12.16 5.65567 12.1509 5.38644 12.1227 5.12637L12.1136 4.98701L12.1044 4.83849V4.8012L12.2994 5.05211C13.0613 5.99979 13.4793 7.20723 13.4793 8.42414C13.4793 9.64106 13.0613 10.858 12.2994 11.8057Z" fill="#0F0E0D"/>
<path d="M29.5972 8.28542C29.5508 8.26677 29.4952 8.24813 29.4952 8.19251C29.4952 8.15523 29.5138 8.12742 29.5508 8.10877C29.6159 8.08097 31.223 7.5049 31.223 5.60985C31.223 3.50118 29.8017 2.24697 27.4048 2.24697H21.5986V14.6395H27.9341C29.7827 14.6395 31.7707 13.3297 31.7707 11.2211C31.7707 9.11239 30.2472 8.49903 29.5969 8.28542H29.5972ZM24.5251 4.78319C24.5251 4.73674 24.5624 4.69945 24.6088 4.69945H26.9128C27.6747 4.69945 28.1948 5.21042 28.1948 5.9723C28.1948 6.56669 27.7303 7.20786 26.8572 7.20786H24.6092C24.5627 7.20786 24.5254 7.17057 24.5254 7.12412V4.78319H24.5251ZM26.9125 12.1962H24.6085C24.5621 12.1962 24.5248 12.1589 24.5248 12.1125V9.64137C24.5248 9.59492 24.5621 9.55763 24.6085 9.55763H26.8566C27.9619 9.55763 28.5936 10.0313 28.5936 10.8675C28.5936 11.7036 28.0084 12.1959 26.9122 12.1959L26.9125 12.1962ZM51.3816 7.18005L50.9358 7.08715C49.9325 6.87353 48.957 6.60398 48.957 5.74004C48.957 4.87609 49.7653 4.48583 50.5641 4.48583C51.5023 4.48583 52.4314 4.9039 53.1373 5.62849L54.9768 3.8077C54.1871 2.93459 52.7844 1.93129 50.5177 1.93129C47.7865 1.93129 45.9471 3.48253 45.9471 5.79597C45.9471 8.23928 47.8699 9.15884 49.4866 9.50265L49.9233 9.59555C51.4932 9.92988 52.2364 10.1808 52.2364 11.0725C52.2364 11.8714 51.521 12.401 50.4621 12.401C49.2173 12.401 48.1117 11.8531 47.2758 10.8216L45.39 12.6702C46.3933 13.8593 47.7217 14.9369 50.4994 14.9369C52.8681 14.9369 55.2744 13.562 55.2744 10.9237C55.2653 8.22032 53.4258 7.60728 51.3819 7.18005H51.3816ZM75.8599 2.24697V6.78031C75.8599 6.82676 75.8226 6.86405 75.7762 6.86405H71.9674C71.921 6.86405 71.8837 6.82676 71.8837 6.78031V2.24697H68.7623V14.6395H71.8837V9.77157C71.8837 9.72511 71.921 9.68783 71.9674 9.68783H75.7762C75.8226 9.68783 75.8599 9.72511 75.8599 9.77157V14.6395H78.9997V2.24697H75.8599ZM62.4827 12.1036C61.08 12.1036 59.5657 10.9332 59.5657 8.35999C59.5657 6.00959 60.9871 4.78351 62.3898 4.78351C63.4118 4.78351 64.1269 5.21074 64.6938 6.15842L67.0906 4.56989C65.8642 2.76774 64.4059 1.95025 62.3715 1.95025C58.3861 1.95025 56.6026 5.17377 56.6026 8.36031C56.6026 12.2342 58.9622 14.9375 62.3345 14.9375C64.8426 14.9375 65.9853 14.018 67.1838 12.3179L64.7687 10.6921C64.2299 11.5652 63.6446 12.104 62.4833 12.104L62.4827 12.1036ZM38.7846 1.93129C35.3753 1.93129 33.09 4.54177 33.09 8.43425C33.09 12.3267 35.3753 14.9372 38.7846 14.9372C42.1939 14.9372 44.4792 12.3267 44.4792 8.43425C44.4792 4.54177 42.1939 1.93129 38.7846 1.93129ZM38.7846 12.1036C37.1123 12.1036 36.0348 10.6636 36.0348 8.43425C36.0348 6.20487 37.1123 4.78351 38.7846 4.78351C40.4569 4.78351 41.5531 6.21404 41.5531 8.43425C41.5531 10.6545 40.466 12.1036 38.7846 12.1036Z" fill="#0F0E0D"/>
</g>
<defs>
<clipPath id="clip0_821_2007">
<rect width="79" height="16.8703" fill="white"/>
</clipPath>
</defs>
</svg>
