<svg width="63" height="24" viewBox="0 0 63 24" fill="none" xmlns="http://www.w3.org/2000/svg">
<g clip-path="url(#clip0_821_1999)">
<path d="M0 11.653C0 18.3975 5.5125 23.6143 11.9752 23.6143C18.438 23.6143 23.9505 18.3975 23.9505 11.653C23.9522 5.46678 19.6455 0.957031 14.8768 0.957031C13.7935 0.957031 12.726 1.19153 11.9752 1.49953C11.2245 1.19153 10.157 0.957031 9.07375 0.957031C4.305 0.957031 0 5.46678 0 11.653ZM14.1085 8.54678C14.1085 9.85753 13.244 10.89 11.9752 10.89C10.7065 10.89 9.842 9.85753 9.842 8.54678C9.842 6.76003 11.0565 5.17453 11.9752 4.63028C12.894 5.17628 14.1085 6.76178 14.1085 8.54678ZM2.94525 11.5953C2.94525 6.94028 6.30525 3.75878 8.94425 3.87778C7.693 5.12378 6.93525 6.94028 6.93525 8.69553C6.93525 11.7178 9.33275 13.837 11.977 13.837C14.6213 13.837 17.0187 11.7178 17.0187 8.69553C17.0187 6.94028 16.261 5.12378 15.0097 3.87778C17.6505 3.75878 21.0088 6.94028 21.0088 11.5953C21.0088 16.6913 16.919 20.669 11.977 20.669C7.035 20.669 2.94525 16.693 2.94525 11.5953Z" fill="#0F0E0D"/>
<path d="M35.0739 5.86914V8.23864H36.3969V12.5926L32.8444 5.86914H28.7441V8.23864H30.0654V15.4836H28.7441V17.8496H34.1674V15.4836H32.8444V11.1279L36.3969 17.8496H39.1741V8.23864H40.4971V5.86914H35.0739Z" fill="#0F0E0D"/>
<path d="M51.7632 10.4716V5.86914H41.335V10.4716H43.7027V8.23689H44.9767V15.4819H43.2477V17.8479H49.8522V15.4819H48.1215V8.23689H49.3972V10.4716H51.7632Z" fill="#0F0E0D"/>
<path d="M63.0005 10.4716V5.86914H52.5723V10.4716H54.9383V8.23689H56.214V15.4819H54.485V17.8479H61.0878V15.4819H59.3588V8.23689H60.6328V10.4716H63.0005Z" fill="#0F0E0D"/>
</g>
<defs>
<clipPath id="clip0_821_1999">
<rect width="63" height="22.6572" fill="white" transform="translate(0 0.957031)"/>
</clipPath>
</defs>
</svg>
