<svg width="72" height="14" viewBox="0 0 72 14" fill="none" xmlns="http://www.w3.org/2000/svg">
<g clip-path="url(#clip0_821_2010)">
<path d="M41.7481 10.632H37.1956V8.07667H41.7505C42.4995 8.08905 43.104 8.64941 43.104 9.34949C43.104 10.0496 42.4971 10.632 41.7481 10.632ZM37.1956 3.13994H41.6698C42.2818 3.14726 42.8005 3.61976 42.8005 4.23896C42.8005 4.85568 42.2571 5.34764 41.6429 5.34033H37.1956V3.13994ZM44.3205 6.71339C45.1624 6.12108 45.4806 5.13963 45.4806 4.06031C45.4806 2.02878 43.7698 0.401132 41.6723 0.401132H34.075V13.3708H41.9708V13.3759C44.1883 13.3759 46.0338 11.665 46.0338 9.56988C46.0338 8.20413 45.2114 7.19321 44.3205 6.71339ZM56.037 0.371882V7.66323C56.037 9.89298 54.7348 10.8279 53.1342 10.8279C51.5311 10.8279 50.2387 9.89534 50.2387 7.66559V0.371882H47.0054V7.68528C47.0054 12.3503 49.7467 13.7086 53.1342 13.7086C56.524 13.7086 59.2677 12.3503 59.2677 7.68528V0.371882H56.037ZM67.3815 5.42617C64.765 4.85827 63.8814 4.60616 63.8814 3.77647C63.8814 3.04466 64.8287 2.67509 66.3241 2.67509C67.7364 2.67509 69.4423 3.27719 70.4433 3.87682L71.4639 1.23836C69.9465 0.606894 68.1207 0.00231934 65.7073 0.00231934C62.5427 0.00231934 60.5674 1.85272 60.5674 4.11419C60.5674 6.37826 62.1951 7.37444 65.421 8.05732C67.9223 8.58596 68.6003 8.90411 68.6003 9.68249C68.6003 10.4609 67.5967 10.7471 66.2409 10.7471C64.4859 10.7471 62.7972 10.1621 61.2062 9.47921L60.2443 12.0515C62.1461 12.9327 64.1213 13.64 66.4758 13.64C70.3992 13.64 72 11.7652 72 9.57956C72 7.63612 70.6538 6.13818 67.3814 5.42606M6.55211 0.401132L0 13.3684L3.8916 13.3709L4.87069 11.2856H9.33975L7.9497 8.44387H6.18502L7.84687 4.89742L12.0322 13.3709H15.9337L9.1269 0.401132H6.55211ZM32.8782 4.71382C32.8782 2.35188 31.2579 0.435444 27.9267 0.435444H21.1984V13.4051L24.3165 13.4025V3.17414H28.1421C29.2728 3.17414 29.7427 3.87423 29.7427 4.70639C29.7427 5.54103 29.2484 6.20917 28.1176 6.20917H25.4423L29.4908 13.4025H32.6922C32.6922 13.4025 29.9215 8.70082 29.9361 8.69834C31.9358 8.07667 32.8781 6.56163 32.8781 4.71371M16.6019 13.3756H19.8277V0.408444H16.6019V13.3756Z" fill="#0F0E0D"/>
</g>
<defs>
<clipPath id="clip0_821_2010">
<rect width="72" height="13.7088" fill="white"/>
</clipPath>
</defs>
</svg>
