<svg width="94" height="19" viewBox="0 0 94 19" fill="none" xmlns="http://www.w3.org/2000/svg">
<path fill-rule="evenodd" clip-rule="evenodd" d="M14.3395 4.93637C13.6511 4.53794 12.915 4.32089 12.179 4.30833C12.1307 4.29677 12.0946 4.29677 12.0463 4.29677C11.153 4.29677 10.2838 4.53794 9.55977 5.0449C8.84781 5.5393 8.2685 6.25175 7.84595 7.09635C7.43546 7.94145 7.23047 8.94331 7.23047 9.9929C7.23047 11.1882 7.47164 12.2499 7.95448 13.095C8.40115 13.9516 9.02869 14.5797 9.77682 15.0138C10.4888 15.4006 11.2736 15.6413 12.0699 15.6413L12.0458 15.6056H12.1785C12.9145 15.5815 13.6632 15.376 14.3751 14.9781C15.0991 14.5797 15.7151 13.9516 16.1975 13.095C16.6441 12.2499 16.8732 11.1882 16.8732 9.9929C16.8732 8.78605 16.6441 7.7239 16.1613 6.8793C15.679 6.0347 15.0635 5.35892 14.3395 4.93637ZM13.1321 13.421C12.9869 14.2661 12.6734 14.6887 12.1905 14.6887H12.1785C11.6715 14.6887 11.358 14.2656 11.2128 13.421C11.0922 12.5759 11.0199 11.4053 11.0199 9.9934C11.0199 9.3538 11.044 8.7142 11.044 8.18312C11.044 7.68822 11.1168 7.16921 11.1887 6.7351C11.2369 6.31255 11.3695 5.92618 11.5389 5.64883C11.6715 5.35892 11.9132 5.22628 12.1785 5.22628C12.6734 5.22628 12.9869 5.685 13.1321 6.5296C13.2768 7.3747 13.3371 8.54538 13.3371 9.9934C13.3371 11.4058 13.2768 12.5764 13.1321 13.421ZM93.0824 13.5542V0.748057H88.7253L88.7007 1.70168C89.7026 1.70168 89.7026 1.70168 89.7026 2.61913V13.5542C89.7026 14.2908 89.7026 14.2546 88.7851 14.2546L88.8097 15.1841H93.9999V14.2546C93.3834 14.2546 93.0824 14.242 93.0824 13.5542ZM33.2527 13.5542V5.61215H34.0852L34.0973 4.71882L33.2527 4.70676V0.748057L32.3719 0.760113C31.3701 2.3654 30.0904 3.58482 28.461 4.70676V5.61215C29.2573 5.61215 29.5593 5.62421 29.5593 6.40852V13.5537C29.5593 14.2415 29.1609 14.2541 28.5936 14.2541V15.1836H34.1702V14.2541C33.4577 14.2546 33.2527 14.23 33.2527 13.5542ZM26.9034 13.6145V6.92803C26.9034 5.3951 26.0106 4.29727 24.1998 4.29727C23.1738 4.29727 22.1363 4.756 21.1701 5.79404V4.70726H16.9094V5.61266C17.8028 5.61266 17.8269 5.61265 17.8269 6.39746L17.851 13.5672C17.851 14.243 17.7907 14.2551 16.9094 14.2792V15.1846H22.4016V14.2551C21.5806 14.2551 21.3394 14.243 21.3394 13.5311V7.16921C21.2791 6.69842 21.7499 6.02264 22.3051 6.02264C22.8965 6.02264 23.4637 6.34873 23.4637 7.07274L23.4517 15.1836H27.9294V14.242C27.3018 14.23 26.9034 14.242 26.9034 13.6145ZM37.1149 4.22442C37.6701 4.22442 38.153 4.01943 38.4791 3.63305C38.7926 3.2713 38.9498 2.83669 38.9498 2.4262C38.9498 1.99159 38.7449 1.54492 38.4308 1.15905C38.1168 0.79679 37.634 0.591797 37.1154 0.591797C36.8745 0.591945 36.6362 0.642487 36.4159 0.740176C36.1956 0.837865 35.9981 0.980541 35.8362 1.15905C35.6696 1.31998 35.5377 1.51324 35.4484 1.72699C35.3592 1.94074 35.3145 2.17046 35.3172 2.40208V2.4262C35.3172 2.9211 35.5102 3.39138 35.8362 3.7054C36.1811 4.03445 36.6383 4.22001 37.1149 4.22442Z" fill="black"/>
<path fill-rule="evenodd" clip-rule="evenodd" d="M12.1786 16.499C11.032 16.7889 9.90957 16.7287 8.93183 16.2458C6.73467 15.1595 4.75557 11.5872 4.75557 9.22123C4.75557 5.46753 7.78527 1.46059 11.6716 2.06401C11.8284 2.08813 11.9977 2.12431 12.1786 2.17254C13.4578 2.51068 15.051 3.35528 16.1252 4.15214L16.3187 3.40351L12.9152 0.0361786L12.6976 0.796367C12.5047 0.736074 12.3353 0.675781 12.1786 0.615489C10.5246 0.02412 10.6698 0 9.04036 0C7.71292 0 6.43321 0.289908 5.34694 0.736073C4.32096 1.14656 3.24675 1.89469 2.48606 2.70362C1.74999 3.47637 1.00136 4.55007 0.615486 5.63634C0.24117 6.73517 0 7.9782 0 9.22123C0 10.9109 0.458725 12.5645 1.20685 13.9406C1.91881 15.2686 3.10155 16.4875 4.47772 17.2361C5.80566 17.9842 7.45919 18.4068 9.19712 18.4068C10.1623 18.4068 11.2008 18.3224 12.1786 18.0933C13.1684 17.8516 14.0979 17.4652 14.8219 16.8497C15.5941 16.1976 15.8117 16.2222 16.3061 15.7635L15.9685 14.4355C14.7496 15.4731 13.4462 16.1976 12.1786 16.499ZM39.372 13.5543V4.70734H34.7852V5.58861C35.5821 5.61273 35.7027 5.62479 35.7027 6.40909V13.5543C35.7027 14.2421 35.5695 14.2547 34.725 14.2547V15.1842H40.3015V14.2547C39.577 14.2547 39.372 14.2421 39.372 13.5543ZM56.3544 10.1266L61.0255 10.1025C61.0255 9.32976 60.904 8.21938 60.6869 7.57977C60.5055 6.97584 60.1558 6.38447 59.7574 5.91419C59.3705 5.47958 58.8515 5.09321 58.2973 4.8641C57.7537 4.62293 57.1266 4.48978 56.4503 4.48978H56.3544C55.4852 4.48978 54.6516 4.61037 53.9402 5.09321C53.2277 5.58811 52.4791 6.46939 52.0816 7.35016C51.852 7.88124 51.7184 8.48466 51.6586 9.12426C51.6242 9.54995 51.6081 9.97691 51.6104 10.404C51.6104 10.6693 51.6219 10.935 51.6586 11.2003C51.7463 11.7849 51.9172 12.3539 52.1661 12.89C52.5232 13.6488 53.099 14.2834 53.8196 14.7124C54.5195 15.1354 55.3887 15.3761 56.3544 15.3887H56.4503C57.621 15.3887 58.7801 15.1354 59.5162 14.5436C60.2041 13.9763 60.9527 12.8056 60.9165 11.2968L59.9393 11.2727C59.8539 12.9503 58.8168 13.8673 57.8145 14.1697C57.3914 14.3024 56.8724 14.3868 56.3544 14.2295C56.2027 14.1766 56.0571 14.1079 55.9198 14.0245C55.3525 13.4819 55.5329 11.4656 55.5329 10.1261H56.3544V10.1266ZM55.5329 6.39703C55.5329 6.39703 55.5329 5.63634 56.3544 5.60017H56.4388C57.1749 5.61223 57.1749 6.39703 57.1749 6.39703V9.28153H56.3544L55.5329 9.29358V6.39703ZM71.127 13.6145V6.92811C71.127 5.39517 70.2458 4.29735 68.4355 4.29735C67.3985 4.29735 66.3599 4.75607 65.3942 5.79411V4.70734H61.1336V5.61273C62.0264 5.61273 62.051 5.61273 62.051 6.39754L62.0756 13.5673C62.0756 14.2431 62.0148 14.2552 61.1451 14.2793V15.1847H66.6378V14.2552C65.8047 14.2552 65.5631 14.2431 65.5631 13.5311V7.16928C65.5033 6.6985 65.973 6.02272 66.5287 6.02272C67.1206 6.02272 67.6879 6.3488 67.6879 7.07281V15.1837H72.154V14.2421C71.5375 14.23 71.127 14.2421 71.127 13.6145ZM50.6934 13.6145V6.92811C50.6934 5.39517 49.8006 4.29735 47.9898 4.29735C46.9759 4.29735 45.9383 4.75607 44.9606 5.79411V4.70734H40.712V5.61273C41.6053 5.61273 41.6415 5.61273 41.6415 6.39754L41.6536 13.5673C41.6536 14.2431 41.5933 14.2552 40.712 14.2793L40.7241 15.1847H46.2162V14.2552C45.3832 14.2552 45.142 14.2431 45.142 13.5311V7.16928C45.0817 6.6985 45.552 6.02272 46.1072 6.02272C46.6985 6.02272 47.2663 6.3488 47.2663 7.07281L47.2542 15.1837H51.7194V14.2421H51.6596C51.0798 14.23 50.6934 14.23 50.6934 13.6145ZM87.3613 13.5422L87.3859 6.89193C87.3859 5.14195 85.539 3.95921 83.3302 3.95921C83.2458 3.95921 83.1614 3.95921 83.0644 3.97126C81.8576 4.07979 79.9986 4.85204 79.1178 5.48009C79.1907 6.07146 79.1304 6.11969 79.1304 6.66282L81.6767 5.43185C81.9415 5.29871 82.5695 5.19068 83.0644 5.25097C83.3785 5.29921 83.6317 5.40774 83.7287 5.62529C83.8015 5.80617 83.9457 6.07196 83.9457 6.33725L83.9583 7.55616C83.6753 7.39516 83.3756 7.2656 83.0644 7.16978C82.2686 6.94067 81.4717 6.96479 80.9281 7.10949C79.251 7.56821 78.5139 9.379 78.5139 11.5877C78.5139 13.1322 79.4434 15.558 81.4833 15.558C82.1957 15.558 82.6424 15.3771 83.064 15.1113C83.2689 14.9907 83.4624 14.846 83.6804 14.7013C84.1995 15.1842 85.2249 15.1721 85.6962 15.1721L88.3752 15.1962L88.3516 14.2305C87.5181 14.2421 87.3613 14.218 87.3613 13.5422ZM83.2092 13.8321C83.1609 13.8321 83.1132 13.82 83.064 13.82C82.4731 13.7839 82.3163 13.4578 82.1837 12.5891C82.1837 11.5877 82.1837 10.3201 82.1711 9.81311C82.1475 8.90822 82.4736 8.46155 83.0288 8.46155H83.064C83.6191 8.48567 83.9332 8.95645 83.9332 9.55988C83.9332 10.3321 83.9578 11.7927 83.9578 12.6494C83.9698 13.4457 83.692 13.8321 83.2092 13.8321ZM77.3432 13.5543V5.61223H78.1647L78.1883 4.71889L77.3432 4.70684V0.748132L76.4629 0.760188C75.4611 2.36548 74.1814 3.58489 72.5515 4.70684V5.61223C73.3483 5.61223 73.6377 5.62429 73.6377 6.40859V13.5538C73.6377 14.2416 73.2518 14.2541 72.6851 14.2541V15.1837H78.2737V14.2541C77.5361 14.2547 77.3432 14.23 77.3432 13.5543Z" fill="black"/>
</svg>
