<svg width="169" height="31" viewBox="0 0 169 31" fill="none" xmlns="http://www.w3.org/2000/svg">
<path d="M74.9225 20.5532V14.2927C74.9225 11.9342 73.4279 10.3481 71.0186 10.3275C69.7524 10.3068 68.4438 10.7028 67.5304 12.1018C66.8453 10.9954 65.7651 10.3275 64.25 10.3275C63.1915 10.3275 62.1524 10.6408 61.3429 11.8091V10.5777H59.1837V20.5532H61.3634V15.0226C61.3634 13.2907 62.3192 12.3726 63.7932 12.3726C65.2673 12.3726 65.9524 13.3114 65.9524 15.0019V20.5532H68.1321V15.0226C68.1321 13.2907 69.1289 12.3726 70.5619 12.3726C71.9949 12.3726 72.7416 13.3114 72.7416 15.0019V20.5532H74.9214H74.9225ZM107.188 10.5777H103.659V7.55126H101.479V10.5777H99.4647V12.5608H101.479V17.1102C101.479 19.4273 102.372 20.8045 104.926 20.8045C105.86 20.8045 106.94 20.5119 107.625 20.0321L107.003 18.1752C106.359 18.5505 105.653 18.7387 105.093 18.7387C104.013 18.7387 103.66 18.0708 103.66 17.0689V12.5608H107.189V10.5777H107.188ZM125.605 10.3263C124.36 10.3263 123.55 10.9105 122.989 11.7873V10.5765H120.851V20.552H123.01V14.9583C123.01 13.3091 123.716 12.391 125.128 12.391C125.564 12.391 126.021 12.4541 126.478 12.6412L127.142 10.596C126.665 10.4078 126.042 10.3252 125.605 10.3252V10.3263ZM97.7622 11.3707C96.7243 10.6821 95.2913 10.3275 93.7133 10.3275C91.2014 10.3275 89.5811 11.5383 89.5811 13.5203C89.5811 15.1477 90.7857 16.1496 93.0066 16.4629L94.0239 16.6086C95.2068 16.7751 95.7675 17.0884 95.7675 17.6519C95.7675 18.4243 94.9785 18.8627 93.5044 18.8627C92.0303 18.8627 90.9296 18.3829 90.2034 17.8194L89.186 19.5099C90.369 20.3868 91.8647 20.8045 93.4838 20.8045C96.3487 20.8045 98.01 19.448 98.01 17.5486C98.01 15.795 96.7015 14.8768 94.5423 14.5647L93.5249 14.4189C92.5909 14.2938 91.8431 14.1056 91.8431 13.4388C91.8431 12.7077 92.5487 12.2705 93.7328 12.2705C94.999 12.2705 96.2242 12.7502 96.8259 13.1266L97.7599 11.373L97.7622 11.3707ZM155.609 10.3263C154.363 10.3263 153.554 10.9105 152.993 11.7873V10.5765H150.854V20.552H153.014V14.9583C153.014 13.3091 153.719 12.391 155.132 12.391C155.568 12.391 156.024 12.4541 156.481 12.6412L157.146 10.596C156.668 10.4078 156.045 10.3252 155.609 10.3252V10.3263ZM127.785 15.5654C127.785 18.5918 129.883 20.8034 133.08 20.8034C134.574 20.8034 135.571 20.4694 136.651 19.6132L135.613 17.8596C134.804 18.4438 133.952 18.7571 133.018 18.7571C131.295 18.7364 130.028 17.4843 130.028 15.5643C130.028 13.6442 131.294 12.3921 133.018 12.3715C133.952 12.3715 134.804 12.6848 135.613 13.2689L136.651 11.5153C135.571 10.6591 134.575 10.3252 133.08 10.3252C129.881 10.3252 127.785 12.5379 127.785 15.5631V15.5654ZM148.009 15.5654V10.5777H145.85V11.7884C145.165 10.891 144.127 10.3275 142.714 10.3275C139.932 10.3275 137.752 12.5195 137.752 15.5654C137.752 18.6113 139.932 20.8034 142.714 20.8034C144.127 20.8034 145.165 20.2399 145.85 19.3424V20.5532H148.009V15.5654ZM139.974 15.5654C139.974 13.8118 141.116 12.3726 142.985 12.3726C144.854 12.3726 145.974 13.7498 145.974 15.5654C145.974 17.381 144.77 18.7582 142.985 18.7582C141.2 18.7582 139.974 17.3179 139.974 15.5654ZM113.915 10.3263C111.008 10.3263 108.974 12.4552 108.974 15.5643C108.974 18.6733 111.092 20.8022 114.06 20.8022C115.555 20.8022 116.925 20.4269 118.13 19.4044L117.071 17.7976C116.241 18.4656 115.182 18.8409 114.185 18.8409C112.794 18.8409 111.527 18.1936 111.216 16.3986H118.588C118.608 16.1278 118.629 15.8558 118.629 15.5643C118.608 12.4552 116.698 10.3263 113.915 10.3263ZM113.874 12.2682C115.265 12.2682 116.158 13.145 116.386 14.6886H111.237C111.465 13.2483 112.337 12.2682 113.873 12.2682H113.874ZM168.045 15.5654V6.57001H165.886V11.7873C165.201 10.8898 164.163 10.3263 162.751 10.3263C159.968 10.3263 157.789 12.5184 157.789 15.5643C157.789 18.6102 159.968 20.8022 162.751 20.8022C164.162 20.8022 165.201 20.2387 165.886 19.3412V20.552H168.045V15.5643V15.5654ZM160.011 15.5654C160.011 13.8118 161.152 12.3726 163.022 12.3726C164.891 12.3726 166.012 13.7498 166.012 15.5654C166.012 17.381 164.807 18.7582 163.022 18.7582C161.236 18.7582 160.011 17.3179 160.011 15.5654ZM87.0897 15.5654V10.5777H84.9305V11.7884C84.2454 10.891 83.2075 10.3275 81.7951 10.3275C79.0125 10.3275 76.8328 12.5195 76.8328 15.5654C76.8328 18.6113 79.0125 20.8034 81.7951 20.8034C83.2075 20.8034 84.2454 20.2399 84.9305 19.3424V20.5532H87.0897V15.5654ZM79.0536 15.5654C79.0536 13.8118 80.1954 12.3726 82.0646 12.3726C83.9337 12.3726 85.0538 13.7498 85.0538 15.5654C85.0538 17.381 83.8492 18.7582 82.0646 18.7582C80.2799 18.7582 79.0536 17.3179 79.0536 15.5654ZM23.7795 27.6928C23.8959 27.795 24.0193 27.8936 24.1403 27.9935C21.7744 29.5773 18.9336 30.5 15.8781 30.5C7.63649 30.5 0.95459 23.785 0.95459 15.5C0.95459 7.215 7.63649 0.5 15.8781 0.5C18.9336 0.5 21.7744 1.42387 24.1391 3.0065C24.0181 3.10635 23.8959 3.2039 23.7783 3.30604C20.2627 6.38064 18.2462 10.8244 18.2462 15.4989C18.2462 20.1733 20.2627 24.6171 23.7783 27.6917L23.7795 27.6928ZM34.3253 0.5C31.2698 0.5 28.4289 1.42387 26.0631 3.0065C26.1841 3.10635 26.3063 3.2039 26.4239 3.30719C29.9396 6.38179 31.956 10.8256 31.956 15.5C31.956 20.1744 29.9396 24.6182 26.4239 27.6928C26.3074 27.795 26.1841 27.8936 26.0631 27.9935C28.4289 29.5773 31.2686 30.5 34.3241 30.5C42.5657 30.5 49.2477 23.7839 49.2477 15.5C49.2477 7.21614 42.5669 0.5 34.3253 0.5ZM25.1017 3.71232C24.9099 3.86496 24.7215 4.02104 24.5365 4.18171C21.3919 6.93152 19.4006 10.9805 19.4006 15.4989C19.4006 20.0172 21.3908 24.0662 24.5365 26.816C24.7203 26.9767 24.9087 27.1339 25.1017 27.2854C25.2935 27.1327 25.4819 26.9767 25.6669 26.816C28.8114 24.0662 30.8028 20.0172 30.8028 15.4989C30.8028 10.9805 28.8126 6.93152 25.6669 4.18171C25.4831 4.02104 25.2947 3.86381 25.1017 3.71232Z" fill="#0E0D0C"/>
</svg>
