<svg fill="none" height="476" viewBox="0 0 1432 476" width="1432" xmlns="http://www.w3.org/2000/svg" xmlns:xlink="http://www.w3.org/1999/xlink"><linearGradient id="a"><stop offset=".86" stop-color="#66f" stop-opacity="0"/><stop offset="1" stop-color="#66f"/></linearGradient><radialGradient id="b" cx="0" cy="0" gradientTransform="matrix(0 355.5 -358.5 0 716.5 255.5)" gradientUnits="userSpaceOnUse" r="1" xlink:href="#a"/><radialGradient id="c" cx="0" cy="0" gradientTransform="matrix(0 355.5 -359 0 1434 255.5)" gradientUnits="userSpaceOnUse" r="1" xlink:href="#a"/><radialGradient id="d" cx="0" cy="0" gradientTransform="matrix(0 355.5 -357.5 0 .5 255.5)" gradientUnits="userSpaceOnUse" r="1" xlink:href="#a"/><clipPath id="e"><path d="m0 0h1432v476h-1432z"/></clipPath><mask id="f" height="476" maskUnits="userSpaceOnUse" width="1432" x="0" y="0"><path d="m0 0h1432v476h-1432z" fill="#fff"/></mask><g clip-path="url(#e)"><path d="m0 0h1432v476h-1432z" fill="#2f1d74"/><g mask="url(#f)"><path d="m719.5-100h-6c-196.337 0-355.5 159.1628-355.5 355.5 0 196.337 159.163 355.5 355.5 355.5h6c196.337 0 355.5-159.163 355.5-355.5 0-196.3372-159.163-355.5-355.5-355.5z" fill="url(#b)"/><path d="m1437.5-100h-7c-196.34 0-355.5 159.1628-355.5 355.5 0 196.337 159.16 355.5 355.5 355.5h7c196.34 0 355.5-159.163 355.5-355.5 0-196.3372-159.16-355.5-355.5-355.5z" fill="url(#c)"/><path d="m2.5-100h-4c-196.337 0-355.5 159.1628-355.5 355.5 0 196.337 159.163 355.5 355.5 355.5h4c196.337 0 355.5-159.163 355.5-355.5 0-196.3372-159.163-355.5-355.5-355.5z" fill="url(#d)"/></g></g></svg>